<svg xmlns="http://www.w3.org/2000/svg" viewBox="0 0 354.17 354.17"><defs><style>.cls-1{fill:#a6d38d;}.cls-2{fill:none;stroke:#212121;stroke-miterlimit:10;stroke-width:12px;}.cls-3{fill:#231f20;}</style></defs><title>Asset 1</title><g id="Layer_2" data-name="Layer 2"><g id="Layer_1-2" data-name="Layer 1"><circle class="cls-1" cx="177.09" cy="177.09" r="177.09"/><circle class="cls-2" cx="177.09" cy="177.09" r="154.27"/><path class="cls-3" d="M86.16,168.74q8.52-.21,13.9-4.23a19.21,19.21,0,0,0,7.15-11q1.77-7,1.88-24t.66-22.4c.67-5.7,1.9-10.28,3.72-13.75a25,25,0,0,1,6.7-8.3,28,28,0,0,1,10.19-4.73q4.21-1,13.74-1h6.2v16h-3.43q-11.52,0-15.29,3.82t-3.77,17q0,26.68-1.22,33.71-2,10.89-6.81,16.8t-15.12,10.49q12.18,4.68,17.67,14.3t5.48,31.52q0,19.86.45,23.62.88,6.93,4.48,9.68T146.87,259h3.43v16h-6.2q-10.86,0-15.73-1.63a26.53,26.53,0,0,1-11.75-7.58,26.26,26.26,0,0,1-6-13.29q-1.4-8.06-1.5-26.38t-1.88-25.35a19.49,19.49,0,0,0-7.15-11.1q-5.37-4.06-13.9-4.28Z"/><path class="cls-3" d="M268,168.74v16.59q-8.53.21-13.91,4.28a19.4,19.4,0,0,0-7.14,11q-1.78,7-1.89,24t-.66,22.4q-1,8.66-3.71,13.8a25.19,25.19,0,0,1-6.71,8.25,27.92,27.92,0,0,1-10.19,4.73q-4.22,1.13-13.74,1.12h-6.2V259h3.43q11.52,0,15.29-3.81T226.36,238q0-25.46,1-32.28,1.77-11.31,7.09-18.08t15.07-10.53q-12.75-5.61-18-14.82t-5.21-31.11q0-19.84-.55-23.72-.78-6.82-4.38-9.52t-14.13-2.7h-3.43v-16h6.2q10.86,0,15.74,1.63a25.52,25.52,0,0,1,11.74,7.54,26.61,26.61,0,0,1,6,13.33q1.38,8.05,1.49,26.38t1.89,25.3a19.37,19.37,0,0,0,7.14,11.05Q259.48,168.54,268,168.74Z"/></g></g></svg>