<svg xmlns="http://www.w3.org/2000/svg" viewBox="0 0 128 128"><defs><style>.a{fill:#262626;}.b{fill:#fff;}.c{fill:none;stroke:#fff;stroke-miterlimit:10;stroke-width:3px;}</style></defs><title>CV</title><rect class="a" width="128" height="128"/><path class="b" d="M62,66.05l1.23.31a.64.64,0,0,1,.46.8,8,8,0,0,1-2.64,4,7.76,7.76,0,0,1-5,1.61,9,9,0,0,1-5-1.24A7.79,7.79,0,0,1,48.2,68a12.89,12.89,0,0,1-1-5,11.08,11.08,0,0,1,1.12-5.13,7.74,7.74,0,0,1,3.2-3.33,9.31,9.31,0,0,1,4.57-1.14,7.73,7.73,0,0,1,4.75,1.44,7.25,7.25,0,0,1,2.46,3.39.63.63,0,0,1-.45.82l-1.23.29a.65.65,0,0,1-.74-.41,5.37,5.37,0,0,0-1.71-2.46A5.11,5.11,0,0,0,56,55.48a6.08,6.08,0,0,0-3.63,1,5.44,5.44,0,0,0-2,2.79,11.13,11.13,0,0,0-.6,3.62,11.38,11.38,0,0,0,.71,4.19,5.17,5.17,0,0,0,2.17,2.68,6.13,6.13,0,0,0,3.2.89,5.4,5.4,0,0,0,3.55-1.21,5.92,5.92,0,0,0,1.81-3A.63.63,0,0,1,62,66.05Z" transform="translate(0)"/><path class="b" d="M72.22,72.29l-7-18.18a.33.33,0,0,1,.31-.44h2a.34.34,0,0,1,.32.21L72.6,67.35c.26.7.48,1.38.68,2a.32.32,0,0,0,.62,0c.22-.68.45-1.36.71-2l5-13.47a.33.33,0,0,1,.31-.21h1.83a.33.33,0,0,1,.31.45L74.94,72.29a.34.34,0,0,1-.3.21H72.53A.35.35,0,0,1,72.22,72.29Z" transform="translate(0)"/><path class="c" d="M41.58,28.13H87.7a1.46,1.46,0,0,1,1.46,1.46V86.53A11.51,11.51,0,0,1,77.66,98H41.58a1.46,1.46,0,0,1-1.46-1.46v-67A1.46,1.46,0,0,1,41.58,28.13Z"/></svg>