<svg xmlns="http://www.w3.org/2000/svg" viewBox="0 0 128 128"><defs><style>.a{fill:#262626;}.b,.c{fill:#fff;}.b{fill-rule:evenodd;}</style></defs><title>Email</title><rect class="a" width="128" height="128"/><path class="b" d="M64,29A35.84,35.84,0,0,0,52.67,98.89c1.79.33,2.45-.77,2.45-1.72s0-3.68,0-6.67C45.1,92.66,43,86.27,43,86.27,41.37,82.13,39,81,39,81c-3.26-2.22.24-2.18.24-2.18,3.6.26,5.49,3.7,5.49,3.7,3.2,5.48,8.39,3.89,10.43,3a7.73,7.73,0,0,1,2.28-4.8c-8-.9-16.33-4-16.33-17.71a13.89,13.89,0,0,1,3.69-9.62,12.86,12.86,0,0,1,.35-9.48s3-1,9.86,3.67a34.16,34.16,0,0,1,18,0c6.84-4.63,9.85-3.67,9.85-3.67a12.86,12.86,0,0,1,.35,9.48A13.89,13.89,0,0,1,86.87,63c0,13.77-8.39,16.8-16.37,17.69,1.29,1.11,2.43,3.29,2.43,6.63,0,4.8,0,8.66,0,9.84,0,1,.65,2.07,2.46,1.72A35.85,35.85,0,0,0,64,29Z"/><path class="c" d="M41.74,80.5c-.08.18-.36.23-.62.11s-.41-.36-.32-.54.36-.23.62-.11.41.36.32.54Z"/><path class="c" d="M43.19,82.12a.54.54,0,0,1-.73-.16.55.55,0,0,1-.11-.75c.18-.16.5-.08.74.17s.28.58.1.74Z"/><path class="c" d="M44.6,84.19c-.22.15-.58,0-.8-.31a.63.63,0,0,1,0-.86c.23-.15.58,0,.81.3a.66.66,0,0,1,0,.87Z"/><path class="c" d="M46.54,86.18c-.2.22-.62.16-.93-.14s-.4-.7-.2-.91.62-.16.93.14.41.7.2.91Z"/><path class="c" d="M49.21,87.34c-.09.28-.49.41-.9.29s-.67-.45-.59-.74.49-.41.9-.29.67.45.59.74Z"/><path class="c" d="M52.14,87.55c0,.3-.33.54-.76.55s-.78-.23-.78-.52.34-.54.76-.55.78.23.78.52Z"/><path class="c" d="M54.87,87.09c.05.29-.25.58-.67.66s-.8-.1-.85-.39.25-.59.66-.66.81.1.86.39Z"/><rect class="a" x="10.48" y="15.37" width="104.89" height="92.44"/><path class="c" d="M64,74.24l-8.87-7.76L29.78,88.21a5.24,5.24,0,0,0,3.54,1.39H94.68a5.15,5.15,0,0,0,3.52-1.39L72.87,66.48Z"/><path class="c" d="M98.22,39.79a5.16,5.16,0,0,0-3.54-1.39H33.32a5.18,5.18,0,0,0-3.53,1.4L64,69.12Z"/><polygon class="c" points="28.17 42.9 28.17 85.43 52.91 64.4 28.17 42.9"/><polygon class="c" points="75.09 64.4 99.83 85.43 99.83 42.88 75.09 64.4"/></svg>